<?xml version="1.0" encoding="utf-8"?>
<!-- Generator: Adobe Illustrator 19.2.1, SVG Export Plug-In . SVG Version: 6.00 Build 0)  -->
<svg version="1.1" id="Logo_" xmlns="http://www.w3.org/2000/svg" xmlns:xlink="http://www.w3.org/1999/xlink" x="0px" y="0px"
	 viewBox="0 0 124 110" style="enable-background:new 0 0 124 110;" xml:space="preserve">
<style type="text/css">
	.st0{fill:#FFFFFF;}
</style>
<path id="Rectangle_arrondi_11" class="st0" d="M14.5,0h57.3c8,0,14.5,6.5,14.5,14.5v0c0,8-6.5,14.5-14.5,14.5H14.5
	C6.5,29,0,22.5,0,14.5v0C0,6.5,6.5,0,14.5,0z"/>
<ellipse class="st0" cx="109.2" cy="14.5" rx="14.8" ry="14.5"/>
<path id="Rectangle_arrondi_11_copie" class="st0" d="M52.6,41.3h56.6c8-0.2,14.6,6.2,14.8,14.2c0.2,8-6.2,14.6-14.2,14.8
	c-0.2,0-0.4,0-0.6,0H52.6c-8,0.2-14.6-6.2-14.8-14.2c-0.2-8,6.2-14.6,14.2-14.8C52.2,41.3,52.4,41.3,52.6,41.3z"/>
<circle id="Ellipse_13_copie" class="st0" cx="14.8" cy="55.8" r="14.8"/>
<path id="Rectangle_arrondi_11_copie_2" class="st0" d="M14.5,81h57.3c8,0,14.5,6.5,14.5,14.5v0c0,8-6.5,14.5-14.5,14.5H14.5
	C6.5,110,0,103.5,0,95.5v0C0,87.5,6.5,81,14.5,81z"/>
<ellipse id="Ellipse_13_copie_2" class="st0" cx="109.2" cy="95.5" rx="14.8" ry="14.5"/>
</svg>
